<mxfile host="add2584e-1244-4012-8140-045b553bcaa7" modified="2020-09-21T12:54:46.781Z" agent="5.0 (Windows NT 10.0; Win64; x64) AppleWebKit/537.36 (KHTML, like Gecko) Code/1.49.1 Chrome/83.0.4103.122 Electron/9.2.1 Safari/537.36" etag="IDXcgvcNu8R5cFJwh4oo" version="13.1.3">
    <diagram id="6hGFLwfOUW9BJ-s0fimq" name="Page-1">
        <mxGraphModel dx="822" dy="577" grid="1" gridSize="10" guides="1" tooltips="1" connect="1" arrows="1" fold="1" page="1" pageScale="1" pageWidth="3300" pageHeight="4681" math="0" shadow="0">
            <root>
                <mxCell id="0"/>
                <mxCell id="1" parent="0"/>
                <mxCell id="6" style="edgeStyle=orthogonalEdgeStyle;rounded=0;orthogonalLoop=1;jettySize=auto;html=1;exitX=0.5;exitY=1;exitDx=0;exitDy=0;exitPerimeter=0;" edge="1" parent="1" source="2" target="11">
                    <mxGeometry relative="1" as="geometry">
                        <mxPoint x="170" y="170" as="targetPoint"/>
                    </mxGeometry>
                </mxCell>
                <mxCell id="2" value="&lt;font style=&quot;font-size: 14px&quot;&gt;start&lt;/font&gt;" style="strokeWidth=1;html=1;shape=mxgraph.flowchart.start_1;whiteSpace=wrap;" parent="1" vertex="1">
                    <mxGeometry x="135" y="100" width="70" height="40" as="geometry"/>
                </mxCell>
                <mxCell id="7" style="edgeStyle=orthogonalEdgeStyle;rounded=0;orthogonalLoop=1;jettySize=auto;html=1;exitX=0.5;exitY=1;exitDx=0;exitDy=0;entryX=0.5;entryY=0;entryDx=0;entryDy=0;" edge="1" parent="1" source="11" target="10">
                    <mxGeometry relative="1" as="geometry">
                        <mxPoint x="170" y="240" as="sourcePoint"/>
                        <mxPoint x="170" y="270" as="targetPoint"/>
                    </mxGeometry>
                </mxCell>
                <mxCell id="4" value="&lt;font style=&quot;font-size: 14px&quot;&gt;end&lt;/font&gt;" style="strokeWidth=1;html=1;shape=mxgraph.flowchart.start_1;whiteSpace=wrap;" parent="1" vertex="1">
                    <mxGeometry x="135" y="370" width="70" height="40" as="geometry"/>
                </mxCell>
                <mxCell id="8" style="edgeStyle=orthogonalEdgeStyle;rounded=0;orthogonalLoop=1;jettySize=auto;html=1;exitX=0.5;exitY=1;exitDx=0;exitDy=0;entryX=0.5;entryY=0;entryDx=0;entryDy=0;entryPerimeter=0;" edge="1" parent="1" source="10" target="4">
                    <mxGeometry relative="1" as="geometry">
                        <mxPoint x="170" y="340" as="sourcePoint"/>
                    </mxGeometry>
                </mxCell>
                <mxCell id="10" value="&lt;font style=&quot;font-size: 14px&quot;&gt;初始化所有的非懒加载的单实例Bean&lt;/font&gt;" style="verticalLabelPosition=middle;verticalAlign=middle;shape=process;whiteSpace=wrap;rounded=1;size=0.14;arcSize=6;html=1;labelPosition=center;align=center;" vertex="1" parent="1">
                    <mxGeometry x="80" y="270" width="180" height="60" as="geometry"/>
                </mxCell>
                <mxCell id="11" value="&lt;span style=&quot;font-size: 14px&quot;&gt;初始化所有的&lt;/span&gt;&lt;font color=&quot;#ff8000&quot; style=&quot;font-size: 14px&quot;&gt;非懒加载&lt;/font&gt;&lt;span style=&quot;font-size: 14px&quot;&gt;的单实例Bean&lt;/span&gt;" style="verticalLabelPosition=middle;verticalAlign=middle;shape=process;whiteSpace=wrap;rounded=1;size=0.14;arcSize=6;html=1;labelPosition=center;align=center;" vertex="1" parent="1">
                    <mxGeometry x="60" y="170" width="220" height="60" as="geometry"/>
                </mxCell>
                <mxCell id="14" style="edgeStyle=orthogonalEdgeStyle;rounded=0;orthogonalLoop=1;jettySize=auto;html=1;exitX=0.5;exitY=1;exitDx=0;exitDy=0;" edge="1" parent="1" source="12" target="13">
                    <mxGeometry relative="1" as="geometry"/>
                </mxCell>
                <mxCell id="12" value="&lt;span style=&quot;font-size: 14px&quot;&gt;初始化所有的&lt;/span&gt;&lt;font color=&quot;#ff8000&quot; style=&quot;font-size: 14px&quot;&gt;非懒加载&lt;/font&gt;&lt;span style=&quot;font-size: 14px&quot;&gt;的单实例Bean&lt;/span&gt;" style="verticalLabelPosition=middle;verticalAlign=middle;shape=process;whiteSpace=wrap;rounded=1;size=0.14;arcSize=6;html=1;labelPosition=center;align=center;" vertex="1" parent="1">
                    <mxGeometry x="410" y="80" width="220" height="60" as="geometry"/>
                </mxCell>
                <mxCell id="16" style="edgeStyle=orthogonalEdgeStyle;rounded=0;orthogonalLoop=1;jettySize=auto;html=1;exitX=0.5;exitY=1;exitDx=0;exitDy=0;entryX=0.5;entryY=0;entryDx=0;entryDy=0;entryPerimeter=0;" edge="1" parent="1" source="13" target="18">
                    <mxGeometry relative="1" as="geometry">
                        <mxPoint x="490" y="360" as="targetPoint"/>
                    </mxGeometry>
                </mxCell>
                <mxCell id="13" value="&lt;span style=&quot;font-size: 14px&quot;&gt;获取BeanDefinition&lt;/span&gt;" style="verticalLabelPosition=middle;verticalAlign=middle;shape=process;whiteSpace=wrap;rounded=1;size=0.14;arcSize=6;html=1;labelPosition=center;align=center;" vertex="1" parent="1">
                    <mxGeometry x="410" y="180" width="220" height="60" as="geometry"/>
                </mxCell>
                <mxCell id="15" value="&lt;span style=&quot;font-size: 14px&quot;&gt;getBean(beanName)&lt;/span&gt;" style="verticalLabelPosition=middle;verticalAlign=middle;shape=process;whiteSpace=wrap;rounded=1;size=0.14;arcSize=6;html=1;labelPosition=center;align=center;" vertex="1" parent="1">
                    <mxGeometry x="410" y="460" width="220" height="60" as="geometry"/>
                </mxCell>
                <mxCell id="17" value="&lt;span style=&quot;font-size: 14px&quot;&gt;对&lt;font color=&quot;#ff8000&quot;&gt;非抽象的、单实例的、非懒加载&lt;/font&gt;的 Bean进行实例化&lt;/span&gt;" style="text;html=1;strokeColor=none;fillColor=none;align=center;verticalAlign=middle;whiteSpace=wrap;rounded=0;" vertex="1" parent="1">
                    <mxGeometry x="410" y="530" width="220" height="40" as="geometry"/>
                </mxCell>
                <mxCell id="20" style="edgeStyle=orthogonalEdgeStyle;rounded=0;orthogonalLoop=1;jettySize=auto;html=1;exitX=0;exitY=0.5;exitDx=0;exitDy=0;exitPerimeter=0;" edge="1" parent="1" source="18" target="19">
                    <mxGeometry relative="1" as="geometry"/>
                </mxCell>
                <mxCell id="23" value="FactoryBean" style="edgeLabel;html=1;align=center;verticalAlign=middle;resizable=0;points=[];" vertex="1" connectable="0" parent="20">
                    <mxGeometry x="-0.0552" y="2" relative="1" as="geometry">
                        <mxPoint as="offset"/>
                    </mxGeometry>
                </mxCell>
                <mxCell id="22" style="edgeStyle=orthogonalEdgeStyle;rounded=0;orthogonalLoop=1;jettySize=auto;html=1;exitX=1;exitY=0.5;exitDx=0;exitDy=0;exitPerimeter=0;entryX=0.5;entryY=0;entryDx=0;entryDy=0;" edge="1" parent="1" source="18" target="15">
                    <mxGeometry relative="1" as="geometry">
                        <Array as="points">
                            <mxPoint x="630" y="310"/>
                            <mxPoint x="630" y="430"/>
                            <mxPoint x="520" y="430"/>
                        </Array>
                    </mxGeometry>
                </mxCell>
                <mxCell id="24" value="非FactoryBean" style="edgeLabel;html=1;align=center;verticalAlign=middle;resizable=0;points=[];" vertex="1" connectable="0" parent="22">
                    <mxGeometry x="-0.3686" y="-5" relative="1" as="geometry">
                        <mxPoint as="offset"/>
                    </mxGeometry>
                </mxCell>
                <mxCell id="18" value="" style="strokeWidth=1;html=1;shape=mxgraph.flowchart.decision;whiteSpace=wrap;" vertex="1" parent="1">
                    <mxGeometry x="475" y="280" width="90" height="60" as="geometry"/>
                </mxCell>
                <mxCell id="21" style="edgeStyle=orthogonalEdgeStyle;rounded=0;orthogonalLoop=1;jettySize=auto;html=1;exitX=0.5;exitY=1;exitDx=0;exitDy=0;entryX=0.5;entryY=0;entryDx=0;entryDy=0;" edge="1" parent="1" source="19" target="15">
                    <mxGeometry relative="1" as="geometry">
                        <Array as="points">
                            <mxPoint x="410" y="430"/>
                            <mxPoint x="520" y="430"/>
                        </Array>
                    </mxGeometry>
                </mxCell>
                <mxCell id="19" value="&lt;font style=&quot;font-size: 14px&quot;&gt;实例化FactoryBean&lt;/font&gt;" style="rounded=1;whiteSpace=wrap;html=1;absoluteArcSize=1;arcSize=14;strokeWidth=1;" vertex="1" parent="1">
                    <mxGeometry x="345" y="350" width="130" height="60" as="geometry"/>
                </mxCell>
            </root>
        </mxGraphModel>
    </diagram>
</mxfile>